<?xml version="1.0" standalone="no"?>
<!DOCTYPE svg PUBLIC "-//W3C//DTD SVG 20010904//EN"
 "http://www.w3.org/TR/2001/REC-SVG-20010904/DTD/svg10.dtd">
<svg version="1.0" xmlns="http://www.w3.org/2000/svg"
 width="260.000000pt" height="260.000000pt" viewBox="0 0 260.000000 260.000000"
 preserveAspectRatio="xMidYMid meet">
<metadata>
Created by potrace 1.11, written by Peter Selinger 2001-2013
</metadata>
<g transform="translate(0.000000,260.000000) scale(0.100000,-0.100000)"
fill="#000000" stroke="none">
<path d="M760 2220 l0 -190 -95 0 -95 0 0 -380 0 -380 285 0 285 0 0 95 0 95
-190 0 -190 0 0 190 0 190 95 0 95 0 0 95 0 95 95 0 95 0 0 -95 0 -95 285 0
285 0 0 -190 0 -190 -190 0 -190 0 0 -95 0 -95 285 0 285 0 0 475 0 475 -95 0
-95 0 0 95 0 95 -475 0 -475 0 0 -190z"/>
<path d="M950 795 l0 -95 -285 0 -285 0 0 -95 0 -95 -95 0 -95 0 0 -95 0 -95
-95 0 -95 0 0 -160 0 -160 570 0 570 0 0 65 0 65 95 0 95 0 0 95 0 95 95 0 95
0 0 95 0 95 95 0 95 0 0 -190 0 -190 -95 0 -95 0 0 -65 0 -65 540 0 540 0 0
160 0 160 -65 0 -65 0 0 95 0 95 -95 0 -95 0 0 95 0 95 -190 0 -190 0 0 95 0
95 -95 0 -95 0 0 -95 0 -95 -95 0 -95 0 0 95 0 95 -285 0 -285 0 0 -95z m570
-190 l0 -95 -95 0 -95 0 0 95 0 95 95 0 95 0 0 -95z"/>
</g>
</svg>
